<svg width="120" height="120" viewBox="0 0 120 120" fill="none" xmlns="http://www.w3.org/2000/svg">
<path d="M70.3639 92.1469C60.8185 88.6015 51.0003 88.0561 42.0003 90.5106C35.7276 92.147 29.7276 95.4197 24.273 99.5106L20.4548 102.783L19.3639 103.874L21.8184 106.056C22.0911 106.056 22.0912 106.329 22.3639 106.602C22.9094 107.147 23.4549 107.42 24.273 107.965L25.9093 109.056L27.5457 107.692C27.8184 107.42 28.3639 106.874 28.9093 106.602C33.8184 102.511 39.273 99.7834 45.0002 98.4197C52.3639 96.5106 60.273 96.7834 68.1821 99.7834C74.7275 102.238 88.0912 105.238 104.182 98.4197L104.728 98.147L105.546 97.3288C105.546 97.0561 105.818 97.0561 106.091 96.7833C107.455 95.147 108.818 93.5106 109.909 91.6015L115.364 83.147L106.637 88.056C93.8184 95.1469 82.0912 96.5106 70.3639 92.1469Z" fill="#155EEF"/>
<path d="M33 62.6937C40.3637 60.7846 48.2728 61.0573 56.1818 64.0573C64.9091 67.3301 87.2728 71.9664 112.364 49.3301L116.455 45.2392L116.727 44.9664L117.818 43.8755L117.273 42.5119C117 41.421 116.455 40.0574 115.909 38.6937L114.545 34.8755L111.818 37.6028C111.545 38.1482 111 38.4209 110.455 38.9664C98.4546 51.2391 79.9091 63.7846 58.6364 56.1483C49.0909 52.6028 39.2728 52.0573 30.2728 54.5119C21.5455 56.9664 13.9091 61.6028 6.81819 68.1483V67.8755L2.72728 72.2392C2.72728 72.5119 2.45461 72.5119 2.18188 72.7846L1.36365 73.6028L1.63639 74.6937C1.90912 76.0573 2.45456 77.421 2.72728 78.7846L4.36366 83.1483L7.09094 79.6028C7.36366 79.0574 7.9091 78.7846 8.18183 78.2392C13.9091 73.0574 21.8182 65.6937 33 62.6937Z" fill="#155EEF"/>
<path d="M6.54552 57.7843C12.8182 51.2388 19.9091 47.1479 27.5455 44.9661C34.9091 43.057 42.8182 43.3297 50.7273 46.3297C75.2727 55.3297 96.5455 40.6024 105.818 32.6933L109.364 29.1479L110.727 28.057L109.636 26.4207C108.818 25.6025 108.273 24.5115 107.455 23.4206L105.818 21.2388L103.909 23.1479C103.636 23.4206 103.091 23.9661 102.818 24.2388C91.3637 35.1479 73.6364 46.3297 53.4546 38.6934C43.9091 35.1479 34.0909 34.6025 25.0909 37.057C19.3637 38.6934 13.9091 41.4206 8.45456 44.9661L2.72727 49.6025C2.18182 50.1479 1.90909 50.4207 1.36364 50.9661L0.818232 51.5115V52.3297C0.545505 54.2388 0.545471 56.1479 0.272744 57.7843L0 64.6025L4.6364 59.6933C5.18185 59.1479 5.72734 58.3297 6.54552 57.7843Z" fill="#155EEF"/>
<path d="M78.2724 110.693L77.7269 112.33L78.2724 110.693C77.4542 110.42 76.9088 110.148 76.0906 109.875C66.5451 106.329 56.7269 105.784 47.7269 108.239C45.8178 108.784 43.9088 109.33 41.9997 110.148L35.4542 113.148L33.8179 113.966L39.2724 115.875C40.9088 116.42 42.5451 116.966 44.1815 117.511L44.9996 117.784L45.8179 117.511C46.636 117.239 47.4542 116.693 48.2724 116.693C48.8178 116.693 49.3633 116.42 49.9088 116.148C56.4542 114.511 63.5451 114.511 71.1815 116.966C71.9996 117.239 72.5451 117.511 73.3633 117.784L74.727 118.33L75.5451 118.057C77.4542 117.511 79.636 116.966 81.2724 116.148L88.9087 113.42L80.9997 111.511C80.1815 111.239 79.0906 110.966 78.2724 110.693Z" fill="#155EEF"/>
<path d="M120 54.2393L115.909 58.3302C115.364 58.8756 114.818 59.4211 114.273 59.9665C103.091 70.6029 85.091 82.0574 64.9092 74.4211C55.3638 70.8756 45.5456 70.3302 36.5456 72.7848C28.091 75.2393 20.4546 79.6029 13.6364 86.1484L10.091 89.9665L9.00012 91.3302L10.091 92.9666C10.9092 94.0575 11.4547 94.8757 12.0001 95.9666L13.6364 98.4211L15.5456 95.9666C15.8183 95.6939 16.3637 95.1483 16.6365 94.8756C23.1819 87.7847 30.2728 83.4211 38.4546 81.2392C45.8183 79.3302 53.7274 79.6029 61.6364 82.6029C68.4546 85.0574 75.5456 85.8757 82.6365 85.0575C95.1819 83.6939 107.727 76.6029 117 68.6939C117.546 68.1484 118.091 67.8757 118.636 67.3302L119.455 66.512V65.6938C119.455 64.0575 119.727 62.1484 119.727 60.512L120 54.2393Z" fill="#155EEF"/>
<path d="M16.3641 29.1488L15.5459 27.5124L16.3641 29.1488C18.0004 28.3306 19.9096 27.7851 21.546 27.2397C28.9096 25.3306 36.8187 25.6033 44.7278 28.6033C49.9096 30.5124 55.0914 31.3306 60.8187 31.3306C72.2732 31.3306 83.7277 27.2397 94.3641 19.3306L98.455 16.0579L99.8186 14.967L97.3641 13.0578C96.5459 12.2397 95.455 11.4215 94.3641 10.876L92.7277 9.78516L91.3641 10.876C90.8186 11.1488 90.5459 11.6942 90.0004 11.9669C75.5459 22.876 61.0914 25.8761 47.4551 20.6942C37.6369 17.1488 27.8186 16.3306 18.0005 19.3306C17.1823 19.6033 16.3641 19.876 15.2732 20.1488L14.7278 20.4215L13.9096 21.2397C13.9096 21.5124 13.6369 21.5124 13.3641 21.7851C12.2732 23.4215 10.9096 24.7852 9.81864 26.4215L4.63684 34.3306L13.0914 29.967C14.455 29.967 15.5459 29.4215 16.3641 29.1488Z" fill="#155EEF"/>
<path d="M38.7273 10.6022L39.5455 10.875C43.0909 12.2386 48.5455 13.6022 55.3637 13.6022C62.4546 13.6022 69.2728 11.9659 76.091 9.23859L84.5455 5.14768L78.8182 3.23864C77.1819 2.69318 75.5455 2.14773 73.6364 1.875H72.8182L72.0001 2.14766C71.1819 2.42039 70.3636 2.96591 69.5455 3.23864C61.3636 6.23864 53.1818 6.78409 45.2727 4.60227C44.4546 4.32955 43.6364 4.05677 42.8182 3.78404L42.0001 3.5113L41.1818 3.78404C39.5455 4.3295 37.9091 4.87498 36.2728 5.69317L30 8.42044L36.5455 10.3295C37.091 10.0568 37.9091 10.3295 38.7273 10.6022Z" fill="#155EEF"/>
</svg>
